Coordinates
version=1
nRows=6
nColumns=36
inDegrees=yes

Units are S.I. units (second, meters, Newtons, ...)
If the header above contains a line with 'inDegrees', this indicates whether rotational values are in degrees (yes) or radians (no).

endheader
time	pelvis_tilt	pelvis_list	pelvis_rotation	pelvis_tx	pelvis_ty	pelvis_tz	hip_flexion_r	hip_adduction_r	hip_rotation_r	knee_angle_r	knee_angle_r_beta	ankle_angle_r	subtalar_angle_r	mtp_angle_r	hip_flexion_l	hip_adduction_l	hip_rotation_l	knee_angle_l	knee_angle_l_beta	ankle_angle_l	subtalar_angle_l	mtp_angle_l	lumbar_extension	lumbar_bending	lumbar_rotation	arm_flex_r	arm_add_r	arm_rot_r	elbow_flex_r	pro_sup_r	arm_flex_l	arm_add_l	arm_rot_l	elbow_flex_l	pro_sup_l
      0.00000000	      1.36302426	      0.74737108	     -1.45043843	      0.02808110	      1.02009095	      0.03594462	     -0.96031123	     -4.84551859	     -1.25634219	      3.38930724	      0.05915457	      3.98915469	     -8.18373005	     -6.21670021	     -1.44130726	     -2.00849546	      0.63600183	      4.00402512	      0.06988342	      7.30466480	     -3.99573144	     -6.21670021	    -10.33422821	     -1.84139880	     -3.14271357	      3.01303827	     -8.75605026	     15.41059242	     28.03739920	     75.96644290	     -0.63712852	     -8.44794637	      7.52352260	     31.51580604	     74.80406186
      0.01666670	     -0.67173314	      0.45049841	     -1.44799624	      0.02773332	      1.01949771	      0.03477257	      0.93774779	     -4.40445057	     -0.23986237	      3.26819865	      0.05704083	      5.65141943	     -6.50979050	     -6.71220895	      0.49643127	     -2.08755506	      0.97483230	      3.15077763	      0.05499144	      7.39320212	     -3.25025888	     -6.71220895	     -7.20471614	     -1.68784054	     -2.46070766	      1.55460109	     -7.68641328	      8.95247151	     28.21436248	     78.88384879	     -0.66407344	     -7.32362354	      4.48149486	     30.53461856	     78.43732958
      0.03333330	     -1.63122762	      0.77975048	     -1.66090254	      0.02598216	      1.01442979	      0.03359876	      1.86941738	     -4.66735260	     -0.66469501	      2.74789857	      0.04795988	      6.13760348	     -6.34126193	     -6.79507669	      1.57384484	     -1.63303842	      1.13552450	      2.99331791	      0.05224325	      7.10356250	     -4.24993175	     -6.79507669	     -6.33866478	     -2.36081146	     -2.22842417	      1.22731335	     -7.09826757	      6.71367023	     28.92480497	     78.20883433	     -0.92388679	     -7.45993935	      3.51977379	     31.13698243	     77.96847552
      0.05000000	     -1.70045244	      0.97409834	     -1.82993476	      0.02394716	      1.01517187	      0.03263178	      1.92315031	     -4.88736106	     -0.28141300	      2.22744868	      0.03887631	      5.74490709	     -6.82571339	     -6.89061060	      1.47382153	     -1.34879689	      0.78121861	      2.38973201	      0.04170869	      7.09920489	     -3.84566083	     -6.89061060	     -6.50437653	     -2.84495609	     -1.99067604	      1.07466201	     -6.83403231	      5.70514344	     29.67141154	     76.90094376	     -0.90049506	     -7.73405586	      3.24412205	     31.50926262	     76.86773002
      0.06666670	     -2.23712987	      1.13250111	     -1.91402682	      0.02290881	      1.01511129	      0.03093066	      2.50427192	     -5.07422113	     -0.18698420	      1.93922363	      0.03384584	      5.49041106	     -6.97971951	     -7.11428946	      2.00565484	     -1.09300309	      0.70772055	      2.11582533	      0.03692812	      7.02819372	     -4.02619222	     -7.11428946	     -6.20389477	     -3.09883270	     -1.07506229	      0.14788297	     -6.46157559	      1.83035621	     31.02805510	     83.12406443	     -0.44264537	     -7.86056380	      3.37026085	     31.44555115	     84.18717177
      0.08333330	     -2.49981774	      1.20291055	     -1.95438690	      0.02036070	      1.01341181	      0.02918485	      2.85876424	     -5.24078633	     -0.13192932	      1.79655363	      0.03135578	      5.39495420	     -6.91422166	     -7.28424703	      2.30984003	     -0.93492773	      0.89324832	      1.95694220	      0.03415508	      7.05088172	     -4.26255418	     -7.28424703	     -6.20240681	     -3.23854843	     -0.97902263	      0.19455047	     -6.77824858	      3.66841751	     31.46327191	     79.47442370	     -0.39995301	     -8.08480433	      4.43871269	     31.98691372	     80.40249678
